<?xml version="1.0" encoding="UTF-8" standalone="no"?>
<!DOCTYPE svg PUBLIC "-//W3C//DTD SVG 1.1//EN"
 "http://www.w3.org/Graphics/SVG/1.1/DTD/svg11.dtd">
<!-- Generated by graphviz version 5.0.0 (20220707.1540)
 -->
<!-- Title: dependencies Pages: 1 -->
<svg width="671pt" height="247pt"
 viewBox="0.00 0.00 671.00 246.80" xmlns="http://www.w3.org/2000/svg" xmlns:xlink="http://www.w3.org/1999/xlink">
<g id="graph0" class="graph" transform="scale(1 1) rotate(0) translate(4 242.8)">
<title>dependencies</title>
<polygon fill="white" stroke="transparent" points="-4,4 -4,-242.8 667,-242.8 667,4 -4,4"/>
<text text-anchor="middle" x="331.5" y="-8.2" font-family="sans-serif" font-size="14.00">dependencies</text>
<g id="clust1" class="cluster">
<title>cluster_BatchesModule</title>
<polygon fill="none" stroke="black" stroke-dasharray="1,5" points="8,-32.8 8,-230.8 655,-230.8 655,-32.8 8,-32.8"/>
</g>
<g id="clust2" class="cluster">
<title>cluster_BatchesModule_declarations</title>
<polygon fill="none" stroke="black" points="355,-40.8 355,-92.8 647,-92.8 647,-40.8 355,-40.8"/>
</g>
<g id="clust6" class="cluster">
<title>cluster_BatchesModule_exports</title>
<polygon fill="none" stroke="black" points="203,-170.8 203,-222.8 502,-222.8 502,-170.8 203,-170.8"/>
</g>
<g id="clust8" class="cluster">
<title>cluster_BatchesModule_providers</title>
<polygon fill="none" stroke="black" points="16,-40.8 16,-92.8 347,-92.8 347,-40.8 16,-40.8"/>
</g>
<!-- AllBatchesComponent -->
<g id="node1" class="node">
<title>AllBatchesComponent</title>
<polygon fill="#ffffb3" stroke="black" points="638.54,-84.8 495.46,-84.8 495.46,-48.8 638.54,-48.8 638.54,-84.8"/>
<text text-anchor="middle" x="567" y="-62.6" font-family="Times,serif" font-size="14.00">AllBatchesComponent</text>
</g>
<!-- BatchesModule -->
<g id="node3" class="node">
<title>BatchesModule</title>
<polygon fill="#8dd3c7" stroke="black" points="396.87,-149.8 393.87,-153.8 372.87,-153.8 369.87,-149.8 293.13,-149.8 293.13,-113.8 396.87,-113.8 396.87,-149.8"/>
<text text-anchor="middle" x="345" y="-127.6" font-family="Times,serif" font-size="14.00">BatchesModule</text>
</g>
<!-- AllBatchesComponent&#45;&gt;BatchesModule -->
<g id="edge1" class="edge">
<title>AllBatchesComponent&#45;&gt;BatchesModule</title>
<path fill="none" stroke="black" d="M567,-84.91C567,-104.14 567,-131.8 567,-131.8 567,-131.8 407.05,-131.8 407.05,-131.8"/>
<polygon fill="black" stroke="black" points="407.05,-128.3 397.05,-131.8 407.05,-135.3 407.05,-128.3"/>
</g>
<!-- BatchComponent -->
<g id="node2" class="node">
<title>BatchComponent</title>
<polygon fill="#ffffb3" stroke="black" points="476.99,-84.8 363.01,-84.8 363.01,-48.8 476.99,-48.8 476.99,-84.8"/>
<text text-anchor="middle" x="420" y="-62.6" font-family="Times,serif" font-size="14.00">BatchComponent</text>
</g>
<!-- BatchComponent&#45;&gt;BatchesModule -->
<g id="edge2" class="edge">
<title>BatchComponent&#45;&gt;BatchesModule</title>
<path fill="none" stroke="black" d="M379.97,-84.91C379.97,-84.91 379.97,-103.79 379.97,-103.79"/>
<polygon fill="black" stroke="black" points="376.47,-103.79 379.97,-113.79 383.47,-103.79 376.47,-103.79"/>
</g>
<!-- AllBatchesComponent  -->
<g id="node4" class="node">
<title>AllBatchesComponent </title>
<polygon fill="#fb8072" stroke="black" points="493.54,-214.8 346.46,-214.8 346.46,-178.8 493.54,-178.8 493.54,-214.8"/>
<text text-anchor="middle" x="420" y="-192.6" font-family="Times,serif" font-size="14.00">AllBatchesComponent </text>
</g>
<!-- BatchesModule&#45;&gt;AllBatchesComponent  -->
<g id="edge3" class="edge">
<title>BatchesModule&#45;&gt;AllBatchesComponent </title>
<path fill="none" stroke="black" stroke-dasharray="5,2" d="M371.71,-149.91C371.71,-149.91 371.71,-168.79 371.71,-168.79"/>
<polygon fill="black" stroke="black" points="368.21,-168.79 371.71,-178.79 375.21,-168.79 368.21,-168.79"/>
</g>
<!-- BatchComponent  -->
<g id="node5" class="node">
<title>BatchComponent </title>
<polygon fill="#fb8072" stroke="black" points="328.99,-214.8 211.01,-214.8 211.01,-178.8 328.99,-178.8 328.99,-214.8"/>
<text text-anchor="middle" x="270" y="-192.6" font-family="Times,serif" font-size="14.00">BatchComponent </text>
</g>
<!-- BatchesModule&#45;&gt;BatchComponent  -->
<g id="edge4" class="edge">
<title>BatchesModule&#45;&gt;BatchComponent </title>
<path fill="none" stroke="black" stroke-dasharray="5,2" d="M310.9,-149.91C310.9,-149.91 310.9,-168.79 310.9,-168.79"/>
<polygon fill="black" stroke="black" points="307.4,-168.79 310.9,-178.79 314.4,-168.79 307.4,-168.79"/>
</g>
<!-- BatchService -->
<g id="node6" class="node">
<title>BatchService</title>
<ellipse fill="#fdb462" stroke="black" cx="276" cy="-66.8" rx="62.54" ry="18"/>
<text text-anchor="middle" x="276" y="-62.6" font-family="Times,serif" font-size="14.00">BatchService</text>
</g>
<!-- BatchService&#45;&gt;BatchesModule -->
<g id="edge5" class="edge">
<title>BatchService&#45;&gt;BatchesModule</title>
<path fill="none" stroke="black" d="M315.79,-80.9C315.79,-80.9 315.79,-103.52 315.79,-103.52"/>
<polygon fill="black" stroke="black" points="312.29,-103.52 315.79,-113.52 319.29,-103.52 312.29,-103.52"/>
</g>
<!-- SecurityInterceptor -->
<g id="node7" class="node">
<title>SecurityInterceptor</title>
<ellipse fill="#fdb462" stroke="black" cx="110" cy="-66.8" rx="85.65" ry="18"/>
<text text-anchor="middle" x="110" y="-62.6" font-family="Times,serif" font-size="14.00">SecurityInterceptor</text>
</g>
<!-- SecurityInterceptor&#45;&gt;BatchesModule -->
<g id="edge6" class="edge">
<title>SecurityInterceptor&#45;&gt;BatchesModule</title>
<path fill="none" stroke="black" d="M110,-84.91C110,-104.14 110,-131.8 110,-131.8 110,-131.8 282.85,-131.8 282.85,-131.8"/>
<polygon fill="black" stroke="black" points="282.85,-135.3 292.85,-131.8 282.85,-128.3 282.85,-135.3"/>
</g>
</g>
</svg>
