<?xml version="1.0" encoding="UTF-8" standalone="no"?>
<!DOCTYPE svg PUBLIC "-//W3C//DTD SVG 1.1//EN"
 "http://www.w3.org/Graphics/SVG/1.1/DTD/svg11.dtd">
<!-- Generated by graphviz version 5.0.0 (20220707.1540)
 -->
<!-- Title: dependencies Pages: 1 -->
<svg width="1265pt" height="247pt"
 viewBox="0.00 0.00 1265.00 246.80" xmlns="http://www.w3.org/2000/svg" xmlns:xlink="http://www.w3.org/1999/xlink">
<g id="graph0" class="graph" transform="scale(1 1) rotate(0) translate(4 242.8)">
<title>dependencies</title>
<polygon fill="white" stroke="transparent" points="-4,4 -4,-242.8 1261,-242.8 1261,4 -4,4"/>
<text text-anchor="middle" x="628.5" y="-8.2" font-family="sans-serif" font-size="14.00">dependencies</text>
<g id="clust1" class="cluster">
<title>cluster_AppModule</title>
<polygon fill="none" stroke="black" stroke-dasharray="1,5" points="8,-32.8 8,-230.8 1249,-230.8 1249,-32.8 8,-32.8"/>
</g>
<g id="clust7" class="cluster">
<title>cluster_AppModule_imports</title>
<polygon fill="none" stroke="black" points="571,-40.8 571,-92.8 1241,-92.8 1241,-40.8 571,-40.8"/>
</g>
<g id="clust9" class="cluster">
<title>cluster_AppModule_bootstrap</title>
<polygon fill="none" stroke="black" points="508,-170.8 508,-222.8 632,-222.8 632,-170.8 508,-170.8"/>
</g>
<g id="clust2" class="cluster">
<title>cluster_AppModule_declarations</title>
<polygon fill="none" stroke="black" points="16,-40.8 16,-92.8 563,-92.8 563,-40.8 16,-40.8"/>
</g>
<!-- AppComponent -->
<g id="node1" class="node">
<title>AppComponent</title>
<polygon fill="#ffffb3" stroke="black" points="554.94,-84.8 449.06,-84.8 449.06,-48.8 554.94,-48.8 554.94,-84.8"/>
<text text-anchor="middle" x="502" y="-62.6" font-family="Times,serif" font-size="14.00">AppComponent</text>
</g>
<!-- AppModule -->
<g id="node5" class="node">
<title>AppModule</title>
<polygon fill="#8dd3c7" stroke="black" points="611.66,-149.8 608.66,-153.8 587.66,-153.8 584.66,-149.8 528.34,-149.8 528.34,-113.8 611.66,-113.8 611.66,-149.8"/>
<text text-anchor="middle" x="570" y="-127.6" font-family="Times,serif" font-size="14.00">AppModule</text>
</g>
<!-- AppComponent&#45;&gt;AppModule -->
<g id="edge1" class="edge">
<title>AppComponent&#45;&gt;AppModule</title>
<path fill="none" stroke="black" d="M541.44,-84.91C541.44,-84.91 541.44,-103.79 541.44,-103.79"/>
<polygon fill="black" stroke="black" points="537.94,-103.79 541.44,-113.79 544.94,-103.79 537.94,-103.79"/>
</g>
<!-- HomeComponent -->
<g id="node2" class="node">
<title>HomeComponent</title>
<polygon fill="#ffffb3" stroke="black" points="431.55,-84.8 316.45,-84.8 316.45,-48.8 431.55,-48.8 431.55,-84.8"/>
<text text-anchor="middle" x="374" y="-62.6" font-family="Times,serif" font-size="14.00">HomeComponent</text>
</g>
<!-- HomeComponent&#45;&gt;AppModule -->
<g id="edge2" class="edge">
<title>HomeComponent&#45;&gt;AppModule</title>
<path fill="none" stroke="black" d="M374,-84.81C374,-100.85 374,-121.8 374,-121.8 374,-121.8 517.95,-121.8 517.95,-121.8"/>
<polygon fill="black" stroke="black" points="517.95,-125.3 527.95,-121.8 517.95,-118.3 517.95,-125.3"/>
</g>
<!-- MenuComponent -->
<g id="node3" class="node">
<title>MenuComponent</title>
<polygon fill="#ffffb3" stroke="black" points="297.99,-84.8 184.01,-84.8 184.01,-48.8 297.99,-48.8 297.99,-84.8"/>
<text text-anchor="middle" x="241" y="-62.6" font-family="Times,serif" font-size="14.00">MenuComponent</text>
</g>
<!-- MenuComponent&#45;&gt;AppModule -->
<g id="edge3" class="edge">
<title>MenuComponent&#45;&gt;AppModule</title>
<path fill="none" stroke="black" d="M241,-85.07C241,-103.36 241,-128.8 241,-128.8 241,-128.8 518.33,-128.8 518.33,-128.8"/>
<polygon fill="black" stroke="black" points="518.33,-132.3 528.33,-128.8 518.33,-125.3 518.33,-132.3"/>
</g>
<!-- OpenTestsComponent -->
<g id="node4" class="node">
<title>OpenTestsComponent</title>
<polygon fill="#ffffb3" stroke="black" points="165.71,-84.8 24.29,-84.8 24.29,-48.8 165.71,-48.8 165.71,-84.8"/>
<text text-anchor="middle" x="95" y="-62.6" font-family="Times,serif" font-size="14.00">OpenTestsComponent</text>
</g>
<!-- OpenTestsComponent&#45;&gt;AppModule -->
<g id="edge4" class="edge">
<title>OpenTestsComponent&#45;&gt;AppModule</title>
<path fill="none" stroke="black" d="M118.53,-84.93C118.53,-105.37 118.53,-135.8 118.53,-135.8 118.53,-135.8 518.34,-135.8 518.34,-135.8"/>
<polygon fill="black" stroke="black" points="518.34,-139.3 528.34,-135.8 518.34,-132.3 518.34,-139.3"/>
</g>
<!-- OpenTestsComponent&#45;&gt;AppModule -->
<g id="edge5" class="edge">
<title>OpenTestsComponent&#45;&gt;AppModule</title>
<path fill="none" stroke="black" d="M71.47,-84.81C71.47,-107.29 71.47,-142.8 71.47,-142.8 71.47,-142.8 517.92,-142.8 517.92,-142.8"/>
<polygon fill="black" stroke="black" points="517.92,-146.3 527.92,-142.8 517.92,-139.3 517.92,-146.3"/>
</g>
<!-- AppComponent  -->
<g id="node11" class="node">
<title>AppComponent </title>
<polygon fill="#80b1d3" stroke="black" points="624.44,-214.8 515.56,-214.8 515.56,-178.8 624.44,-178.8 624.44,-214.8"/>
<text text-anchor="middle" x="570" y="-192.6" font-family="Times,serif" font-size="14.00">AppComponent </text>
</g>
<!-- AppModule&#45;&gt;AppComponent  -->
<g id="edge11" class="edge">
<title>AppModule&#45;&gt;AppComponent </title>
<path fill="none" stroke="black" stroke-dasharray="1,5" d="M570,-149.91C570,-149.91 570,-168.79 570,-168.79"/>
<polygon fill="black" stroke="black" points="566.5,-168.79 570,-178.79 573.5,-168.79 566.5,-168.79"/>
</g>
<!-- AppRoutingModule -->
<g id="node6" class="node">
<title>AppRoutingModule</title>
<polygon fill="#8dd3c7" stroke="black" points="1233.28,-84.8 1230.28,-88.8 1209.28,-88.8 1206.28,-84.8 1104.72,-84.8 1104.72,-48.8 1233.28,-48.8 1233.28,-84.8"/>
<text text-anchor="middle" x="1169" y="-62.6" font-family="Times,serif" font-size="14.00">AppRoutingModule</text>
</g>
<!-- AppRoutingModule&#45;&gt;AppModule -->
<g id="edge6" class="edge">
<title>AppRoutingModule&#45;&gt;AppModule</title>
<path fill="none" stroke="black" d="M1169,-84.81C1169,-107.29 1169,-142.8 1169,-142.8 1169,-142.8 622.12,-142.8 622.12,-142.8"/>
<polygon fill="black" stroke="black" points="622.12,-139.3 612.12,-142.8 622.12,-146.3 622.12,-139.3"/>
</g>
<!-- ApplicationModule -->
<g id="node7" class="node">
<title>ApplicationModule</title>
<polygon fill="#8dd3c7" stroke="black" points="1086.65,-84.8 1083.65,-88.8 1062.65,-88.8 1059.65,-84.8 961.35,-84.8 961.35,-48.8 1086.65,-48.8 1086.65,-84.8"/>
<text text-anchor="middle" x="1024" y="-62.6" font-family="Times,serif" font-size="14.00">ApplicationModule</text>
</g>
<!-- ApplicationModule&#45;&gt;AppModule -->
<g id="edge7" class="edge">
<title>ApplicationModule&#45;&gt;AppModule</title>
<path fill="none" stroke="black" d="M1024,-84.93C1024,-105.37 1024,-135.8 1024,-135.8 1024,-135.8 621.9,-135.8 621.9,-135.8"/>
<polygon fill="black" stroke="black" points="621.9,-132.3 611.9,-135.8 621.9,-139.3 621.9,-132.3"/>
</g>
<!-- BatchesModule -->
<g id="node8" class="node">
<title>BatchesModule</title>
<polygon fill="#8dd3c7" stroke="black" points="942.87,-84.8 939.87,-88.8 918.87,-88.8 915.87,-84.8 839.13,-84.8 839.13,-48.8 942.87,-48.8 942.87,-84.8"/>
<text text-anchor="middle" x="891" y="-62.6" font-family="Times,serif" font-size="14.00">BatchesModule</text>
</g>
<!-- BatchesModule&#45;&gt;AppModule -->
<g id="edge8" class="edge">
<title>BatchesModule&#45;&gt;AppModule</title>
<path fill="none" stroke="black" d="M891,-85.07C891,-103.36 891,-128.8 891,-128.8 891,-128.8 621.97,-128.8 621.97,-128.8"/>
<polygon fill="black" stroke="black" points="621.97,-125.3 611.97,-128.8 621.97,-132.3 621.97,-125.3"/>
</g>
<!-- SecurityModule -->
<g id="node9" class="node">
<title>SecurityModule</title>
<polygon fill="#8dd3c7" stroke="black" points="821.21,-84.8 818.21,-88.8 797.21,-88.8 794.21,-84.8 714.79,-84.8 714.79,-48.8 821.21,-48.8 821.21,-84.8"/>
<text text-anchor="middle" x="768" y="-62.6" font-family="Times,serif" font-size="14.00">SecurityModule</text>
</g>
<!-- SecurityModule&#45;&gt;AppModule -->
<g id="edge9" class="edge">
<title>SecurityModule&#45;&gt;AppModule</title>
<path fill="none" stroke="black" d="M768,-84.81C768,-100.85 768,-121.8 768,-121.8 768,-121.8 621.99,-121.8 621.99,-121.8"/>
<polygon fill="black" stroke="black" points="621.99,-118.3 611.99,-121.8 621.99,-125.3 621.99,-118.3"/>
</g>
<!-- VacanciesModule -->
<g id="node10" class="node">
<title>VacanciesModule</title>
<polygon fill="#8dd3c7" stroke="black" points="696.57,-84.8 693.57,-88.8 672.57,-88.8 669.57,-84.8 579.43,-84.8 579.43,-48.8 696.57,-48.8 696.57,-84.8"/>
<text text-anchor="middle" x="638" y="-62.6" font-family="Times,serif" font-size="14.00">VacanciesModule</text>
</g>
<!-- VacanciesModule&#45;&gt;AppModule -->
<g id="edge10" class="edge">
<title>VacanciesModule&#45;&gt;AppModule</title>
<path fill="none" stroke="black" d="M595.65,-84.91C595.65,-84.91 595.65,-103.79 595.65,-103.79"/>
<polygon fill="black" stroke="black" points="592.15,-103.79 595.65,-113.79 599.15,-103.79 592.15,-103.79"/>
</g>
</g>
</svg>
