<?xml version="1.0" encoding="UTF-8" standalone="no"?>
<!DOCTYPE svg PUBLIC "-//W3C//DTD SVG 1.1//EN"
 "http://www.w3.org/Graphics/SVG/1.1/DTD/svg11.dtd">
<!-- Generated by graphviz version 5.0.0 (20220707.1540)
 -->
<!-- Title: dependencies Pages: 1 -->
<svg width="619pt" height="247pt"
 viewBox="0.00 0.00 619.00 246.80" xmlns="http://www.w3.org/2000/svg" xmlns:xlink="http://www.w3.org/1999/xlink">
<g id="graph0" class="graph" transform="scale(1 1) rotate(0) translate(4 242.8)">
<title>dependencies</title>
<polygon fill="white" stroke="transparent" points="-4,4 -4,-242.8 615,-242.8 615,4 -4,4"/>
<text text-anchor="middle" x="305.5" y="-8.2" font-family="sans-serif" font-size="14.00">dependencies</text>
<g id="clust1" class="cluster">
<title>cluster_ApplicationModule</title>
<polygon fill="none" stroke="black" stroke-dasharray="1,5" points="8,-32.8 8,-230.8 603,-230.8 603,-32.8 8,-32.8"/>
</g>
<g id="clust5" class="cluster">
<title>cluster_ApplicationModule_exports</title>
<polygon fill="none" stroke="black" points="200,-170.8 200,-222.8 398,-222.8 398,-170.8 200,-170.8"/>
</g>
<g id="clust2" class="cluster">
<title>cluster_ApplicationModule_declarations</title>
<polygon fill="none" stroke="black" points="401,-40.8 401,-92.8 595,-92.8 595,-40.8 401,-40.8"/>
</g>
<g id="clust7" class="cluster">
<title>cluster_ApplicationModule_providers</title>
<polygon fill="none" stroke="black" points="16,-40.8 16,-92.8 393,-92.8 393,-40.8 16,-40.8"/>
</g>
<!-- ApplicationFormComponent -->
<g id="node1" class="node">
<title>ApplicationFormComponent</title>
<polygon fill="#ffffb3" stroke="black" points="586.77,-84.8 409.23,-84.8 409.23,-48.8 586.77,-48.8 586.77,-84.8"/>
<text text-anchor="middle" x="498" y="-62.6" font-family="Times,serif" font-size="14.00">ApplicationFormComponent</text>
</g>
<!-- ApplicationModule -->
<g id="node2" class="node">
<title>ApplicationModule</title>
<polygon fill="#8dd3c7" stroke="black" points="361.65,-149.8 358.65,-153.8 337.65,-153.8 334.65,-149.8 236.35,-149.8 236.35,-113.8 361.65,-113.8 361.65,-149.8"/>
<text text-anchor="middle" x="299" y="-127.6" font-family="Times,serif" font-size="14.00">ApplicationModule</text>
</g>
<!-- ApplicationFormComponent&#45;&gt;ApplicationModule -->
<g id="edge1" class="edge">
<title>ApplicationFormComponent&#45;&gt;ApplicationModule</title>
<path fill="none" stroke="black" d="M498,-84.91C498,-104.14 498,-131.8 498,-131.8 498,-131.8 371.69,-131.8 371.69,-131.8"/>
<polygon fill="black" stroke="black" points="371.69,-128.3 361.69,-131.8 371.69,-135.3 371.69,-128.3"/>
</g>
<!-- ApplicationFormComponent  -->
<g id="node3" class="node">
<title>ApplicationFormComponent </title>
<polygon fill="#fb8072" stroke="black" points="389.77,-214.8 208.23,-214.8 208.23,-178.8 389.77,-178.8 389.77,-214.8"/>
<text text-anchor="middle" x="299" y="-192.6" font-family="Times,serif" font-size="14.00">ApplicationFormComponent </text>
</g>
<!-- ApplicationModule&#45;&gt;ApplicationFormComponent  -->
<g id="edge2" class="edge">
<title>ApplicationModule&#45;&gt;ApplicationFormComponent </title>
<path fill="none" stroke="black" stroke-dasharray="5,2" d="M299,-149.91C299,-149.91 299,-168.79 299,-168.79"/>
<polygon fill="black" stroke="black" points="295.5,-168.79 299,-178.79 302.5,-168.79 295.5,-168.79"/>
</g>
<!-- ApplicationService -->
<g id="node4" class="node">
<title>ApplicationService</title>
<ellipse fill="#fdb462" stroke="black" cx="299" cy="-66.8" rx="85.67" ry="18"/>
<text text-anchor="middle" x="299" y="-62.6" font-family="Times,serif" font-size="14.00">ApplicationService</text>
</g>
<!-- ApplicationService&#45;&gt;ApplicationModule -->
<g id="edge3" class="edge">
<title>ApplicationService&#45;&gt;ApplicationModule</title>
<path fill="none" stroke="black" d="M299,-84.91C299,-84.91 299,-103.79 299,-103.79"/>
<polygon fill="black" stroke="black" points="295.5,-103.79 299,-113.79 302.5,-103.79 295.5,-103.79"/>
</g>
<!-- SecurityInterceptor -->
<g id="node5" class="node">
<title>SecurityInterceptor</title>
<ellipse fill="#fdb462" stroke="black" cx="110" cy="-66.8" rx="85.65" ry="18"/>
<text text-anchor="middle" x="110" y="-62.6" font-family="Times,serif" font-size="14.00">SecurityInterceptor</text>
</g>
<!-- SecurityInterceptor&#45;&gt;ApplicationModule -->
<g id="edge4" class="edge">
<title>SecurityInterceptor&#45;&gt;ApplicationModule</title>
<path fill="none" stroke="black" d="M110,-84.91C110,-104.14 110,-131.8 110,-131.8 110,-131.8 226.33,-131.8 226.33,-131.8"/>
<polygon fill="black" stroke="black" points="226.33,-135.3 236.33,-131.8 226.33,-128.3 226.33,-135.3"/>
</g>
</g>
</svg>
