<?xml version="1.0" encoding="UTF-8" standalone="no"?>
<!DOCTYPE svg PUBLIC "-//W3C//DTD SVG 1.1//EN"
 "http://www.w3.org/Graphics/SVG/1.1/DTD/svg11.dtd">
<!-- Generated by graphviz version 5.0.0 (20220707.1540)
 -->
<!-- Title: dependencies Pages: 1 -->
<svg width="1015pt" height="247pt"
 viewBox="0.00 0.00 1015.00 246.80" xmlns="http://www.w3.org/2000/svg" xmlns:xlink="http://www.w3.org/1999/xlink">
<g id="graph0" class="graph" transform="scale(1 1) rotate(0) translate(4 242.8)">
<title>dependencies</title>
<polygon fill="white" stroke="transparent" points="-4,4 -4,-242.8 1011,-242.8 1011,4 -4,4"/>
<text text-anchor="middle" x="503.5" y="-8.2" font-family="sans-serif" font-size="14.00">dependencies</text>
<g id="clust1" class="cluster">
<title>cluster_VacanciesModule</title>
<polygon fill="none" stroke="black" stroke-dasharray="1,5" points="8,-32.8 8,-230.8 999,-230.8 999,-32.8 8,-32.8"/>
</g>
<g id="clust8" class="cluster">
<title>cluster_VacanciesModule_exports</title>
<polygon fill="none" stroke="black" points="145,-170.8 145,-222.8 773,-222.8 773,-170.8 145,-170.8"/>
</g>
<g id="clust10" class="cluster">
<title>cluster_VacanciesModule_providers</title>
<polygon fill="none" stroke="black" points="638,-40.8 638,-92.8 991,-92.8 991,-40.8 638,-40.8"/>
</g>
<g id="clust2" class="cluster">
<title>cluster_VacanciesModule_declarations</title>
<polygon fill="none" stroke="black" points="16,-40.8 16,-92.8 630,-92.8 630,-40.8 16,-40.8"/>
</g>
<!-- AllVacanciesComponent -->
<g id="node1" class="node">
<title>AllVacanciesComponent</title>
<polygon fill="#ffffb3" stroke="black" points="622.24,-84.8 465.76,-84.8 465.76,-48.8 622.24,-48.8 622.24,-84.8"/>
<text text-anchor="middle" x="544" y="-62.6" font-family="Times,serif" font-size="14.00">AllVacanciesComponent</text>
</g>
<!-- VacanciesModule -->
<g id="node5" class="node">
<title>VacanciesModule</title>
<polygon fill="#8dd3c7" stroke="black" points="530.57,-149.8 527.57,-153.8 506.57,-153.8 503.57,-149.8 413.43,-149.8 413.43,-113.8 530.57,-113.8 530.57,-149.8"/>
<text text-anchor="middle" x="472" y="-127.6" font-family="Times,serif" font-size="14.00">VacanciesModule</text>
</g>
<!-- AllVacanciesComponent&#45;&gt;VacanciesModule -->
<g id="edge1" class="edge">
<title>AllVacanciesComponent&#45;&gt;VacanciesModule</title>
<path fill="none" stroke="black" d="M498.08,-84.91C498.08,-84.91 498.08,-103.79 498.08,-103.79"/>
<polygon fill="black" stroke="black" points="494.58,-103.79 498.08,-113.79 501.58,-103.79 494.58,-103.79"/>
</g>
<!-- FilterListPipe -->
<g id="node2" class="node">
<title>FilterListPipe</title>
<polygon fill="#ffffb3" stroke="black" points="447.5,-84.8 354.5,-84.8 354.5,-48.8 447.5,-48.8 447.5,-84.8"/>
<text text-anchor="middle" x="401" y="-62.6" font-family="Times,serif" font-size="14.00">FilterListPipe</text>
</g>
<!-- FilterListPipe&#45;&gt;VacanciesModule -->
<g id="edge2" class="edge">
<title>FilterListPipe&#45;&gt;VacanciesModule</title>
<path fill="none" stroke="black" d="M430.48,-84.91C430.48,-84.91 430.48,-103.79 430.48,-103.79"/>
<polygon fill="black" stroke="black" points="426.98,-103.79 430.48,-113.79 433.98,-103.79 426.98,-103.79"/>
</g>
<!-- VacancyComponent -->
<g id="node3" class="node">
<title>VacancyComponent</title>
<polygon fill="#ffffb3" stroke="black" points="336.3,-84.8 205.7,-84.8 205.7,-48.8 336.3,-48.8 336.3,-84.8"/>
<text text-anchor="middle" x="271" y="-62.6" font-family="Times,serif" font-size="14.00">VacancyComponent</text>
</g>
<!-- VacancyComponent&#45;&gt;VacanciesModule -->
<g id="edge3" class="edge">
<title>VacancyComponent&#45;&gt;VacanciesModule</title>
<path fill="none" stroke="black" d="M328.58,-84.83C328.58,-101.2 328.58,-122.8 328.58,-122.8 328.58,-122.8 403.25,-122.8 403.25,-122.8"/>
<polygon fill="black" stroke="black" points="403.25,-126.3 413.25,-122.8 403.25,-119.3 403.25,-126.3"/>
</g>
<!-- VacancyDetailComponent -->
<g id="node4" class="node">
<title>VacancyDetailComponent</title>
<polygon fill="#ffffb3" stroke="black" points="188,-84.8 24,-84.8 24,-48.8 188,-48.8 188,-84.8"/>
<text text-anchor="middle" x="106" y="-62.6" font-family="Times,serif" font-size="14.00">VacancyDetailComponent</text>
</g>
<!-- VacancyDetailComponent&#45;&gt;VacanciesModule -->
<g id="edge4" class="edge">
<title>VacancyDetailComponent&#45;&gt;VacanciesModule</title>
<path fill="none" stroke="black" d="M170.62,-84.91C170.62,-104.14 170.62,-131.8 170.62,-131.8 170.62,-131.8 403.18,-131.8 403.18,-131.8"/>
<polygon fill="black" stroke="black" points="403.18,-135.3 413.18,-131.8 403.18,-128.3 403.18,-135.3"/>
</g>
<!-- AllVacanciesComponent  -->
<g id="node6" class="node">
<title>AllVacanciesComponent </title>
<polygon fill="#fb8072" stroke="black" points="765.24,-214.8 604.76,-214.8 604.76,-178.8 765.24,-178.8 765.24,-214.8"/>
<text text-anchor="middle" x="685" y="-192.6" font-family="Times,serif" font-size="14.00">AllVacanciesComponent </text>
</g>
<!-- VacanciesModule&#45;&gt;AllVacanciesComponent  -->
<g id="edge5" class="edge">
<title>VacanciesModule&#45;&gt;AllVacanciesComponent </title>
<path fill="none" stroke="black" stroke-dasharray="5,2" d="M530.83,-140.8C569.74,-140.8 613.62,-140.8 613.62,-140.8 613.62,-140.8 613.62,-168.77 613.62,-168.77"/>
<polygon fill="black" stroke="black" points="610.13,-168.77 613.62,-178.77 617.13,-168.77 610.13,-168.77"/>
</g>
<!-- FilterListPipe  -->
<g id="node7" class="node">
<title>FilterListPipe </title>
<polygon fill="#fb8072" stroke="black" points="587,-214.8 491,-214.8 491,-178.8 587,-178.8 587,-214.8"/>
<text text-anchor="middle" x="539" y="-192.6" font-family="Times,serif" font-size="14.00">FilterListPipe </text>
</g>
<!-- VacanciesModule&#45;&gt;FilterListPipe  -->
<g id="edge6" class="edge">
<title>VacanciesModule&#45;&gt;FilterListPipe </title>
<path fill="none" stroke="black" stroke-dasharray="5,2" d="M510.64,-149.91C510.64,-149.91 510.64,-168.79 510.64,-168.79"/>
<polygon fill="black" stroke="black" points="507.14,-168.79 510.64,-178.79 514.14,-168.79 507.14,-168.79"/>
</g>
<!-- VacancyComponent  -->
<g id="node8" class="node">
<title>VacancyComponent </title>
<polygon fill="#fb8072" stroke="black" points="472.8,-214.8 339.2,-214.8 339.2,-178.8 472.8,-178.8 472.8,-214.8"/>
<text text-anchor="middle" x="406" y="-192.6" font-family="Times,serif" font-size="14.00">VacancyComponent </text>
</g>
<!-- VacanciesModule&#45;&gt;VacancyComponent  -->
<g id="edge7" class="edge">
<title>VacanciesModule&#45;&gt;VacancyComponent </title>
<path fill="none" stroke="black" stroke-dasharray="5,2" d="M443.18,-149.91C443.18,-149.91 443.18,-168.79 443.18,-168.79"/>
<polygon fill="black" stroke="black" points="439.68,-168.79 443.18,-178.79 446.68,-168.79 439.68,-168.79"/>
</g>
<!-- VacancyDetailComponent  -->
<g id="node9" class="node">
<title>VacancyDetailComponent </title>
<polygon fill="#fb8072" stroke="black" points="321,-214.8 153,-214.8 153,-178.8 321,-178.8 321,-214.8"/>
<text text-anchor="middle" x="237" y="-192.6" font-family="Times,serif" font-size="14.00">VacancyDetailComponent </text>
</g>
<!-- VacanciesModule&#45;&gt;VacancyDetailComponent  -->
<g id="edge8" class="edge">
<title>VacanciesModule&#45;&gt;VacancyDetailComponent </title>
<path fill="none" stroke="black" stroke-dasharray="5,2" d="M413.35,-140.8C351.65,-140.8 263.43,-140.8 263.43,-140.8 263.43,-140.8 263.43,-168.77 263.43,-168.77"/>
<polygon fill="black" stroke="black" points="259.93,-168.77 263.43,-178.77 266.93,-168.77 259.93,-168.77"/>
</g>
<!-- SecurityInterceptor -->
<g id="node10" class="node">
<title>SecurityInterceptor</title>
<ellipse fill="#fdb462" stroke="black" cx="897" cy="-66.8" rx="85.65" ry="18"/>
<text text-anchor="middle" x="897" y="-62.6" font-family="Times,serif" font-size="14.00">SecurityInterceptor</text>
</g>
<!-- SecurityInterceptor&#45;&gt;VacanciesModule -->
<g id="edge9" class="edge">
<title>SecurityInterceptor&#45;&gt;VacanciesModule</title>
<path fill="none" stroke="black" d="M897,-84.91C897,-104.14 897,-131.8 897,-131.8 897,-131.8 540.65,-131.8 540.65,-131.8"/>
<polygon fill="black" stroke="black" points="540.65,-128.3 530.65,-131.8 540.65,-135.3 540.65,-128.3"/>
</g>
<!-- VacancyService -->
<g id="node11" class="node">
<title>VacancyService</title>
<ellipse fill="#fdb462" stroke="black" cx="720" cy="-66.8" rx="73.54" ry="18"/>
<text text-anchor="middle" x="720" y="-62.6" font-family="Times,serif" font-size="14.00">VacancyService</text>
</g>
<!-- VacancyService&#45;&gt;VacanciesModule -->
<g id="edge10" class="edge">
<title>VacancyService&#45;&gt;VacanciesModule</title>
<path fill="none" stroke="black" d="M705.68,-84.52C705.68,-100.93 705.68,-122.8 705.68,-122.8 705.68,-122.8 540.66,-122.8 540.66,-122.8"/>
<polygon fill="black" stroke="black" points="540.66,-119.3 530.66,-122.8 540.66,-126.3 540.66,-119.3"/>
</g>
</g>
</svg>
